<svg width="50" height="50" viewBox="0 0 50 50" fill="none" xmlns="http://www.w3.org/2000/svg">
<path d="M0.97514 16.9492C17.1533 16.9492 33.3315 16.9492 50 16.9492C50 43.4716 50 43.4716 46.6053 47.036C44.9201 48.7047 42.4461 49.9599 40.0779 49.9645C39.9724 49.965 39.867 49.9654 39.7583 49.9659C39.6434 49.9659 39.5285 49.9658 39.4102 49.9658C39.2873 49.9662 39.1645 49.9666 39.0379 49.9669C38.6976 49.9679 38.3572 49.9683 38.0169 49.9686C37.6495 49.9689 37.2821 49.9699 36.9148 49.9707C36.0277 49.9727 35.1406 49.9737 34.2536 49.9746C33.8352 49.975 33.4169 49.9755 32.9985 49.9761C31.6067 49.9777 30.215 49.9792 28.8232 49.9799C28.4622 49.9801 28.1012 49.9803 27.7403 49.9805C27.6505 49.9805 27.5608 49.9805 27.4684 49.9806C26.017 49.9814 24.5656 49.9839 23.1142 49.9871C21.6221 49.9904 20.13 49.9922 18.6379 49.9925C17.8009 49.9927 16.964 49.9936 16.127 49.9961C15.4138 49.9983 14.7006 49.999 13.9874 49.9981C13.6242 49.9976 13.261 49.9978 12.8977 49.9997C9.26323 50.018 6.44518 49.1307 3.80019 46.4482C2.8903 45.4697 2.23161 44.3412 1.70525 43.1026C1.67561 43.035 1.64597 42.9673 1.61543 42.8977C-1.598 34.906 0.97514 25.6015 0.97514 16.9492ZM18.1147 24.8539C17.7363 25.4827 17.5292 26.0438 17.5261 26.7838C17.5254 26.895 17.5247 27.0062 17.524 27.1208C17.5238 27.2424 17.5235 27.364 17.5232 27.4893C17.5226 27.6177 17.522 27.7461 17.5213 27.8784C17.5193 28.3041 17.5183 28.7298 17.5174 29.1555C17.517 29.3024 17.5166 29.4493 17.5162 29.5963C17.5144 30.2869 17.513 30.9776 17.5122 31.6682C17.5113 32.4635 17.5087 33.2587 17.5049 34.0539C17.502 34.6698 17.5006 35.2856 17.5003 35.9015C17.5 36.2687 17.4992 36.6359 17.4968 37.0032C17.4941 37.4137 17.4945 37.8242 17.4952 38.2348C17.494 38.355 17.4927 38.4752 17.4915 38.599C17.4975 39.6236 17.6959 40.5228 18.3952 41.2835C19.1005 41.8891 19.8943 42.1297 20.7957 42.0466C21.6143 41.8205 22.3498 41.3968 23.0878 40.9782C23.205 40.9125 23.3222 40.8468 23.4395 40.7812C23.6825 40.6453 23.9252 40.509 24.1679 40.3724C24.7377 40.0522 25.3103 39.7375 25.8825 39.422C26.8471 38.889 27.8111 38.3548 28.7741 37.8188C29.3041 37.5238 29.8346 37.2298 30.366 36.9375C32.7829 35.8211 32.7829 35.8211 34.3502 33.7852C34.5012 32.9414 34.4769 32.1759 34.0839 31.4127C33.5656 30.6968 32.9725 30.2929 32.2081 29.8869C32.0018 29.7745 31.7955 29.6621 31.5891 29.5496C31.4829 29.4922 31.3766 29.4349 31.2671 29.3758C30.7466 29.0937 30.2298 28.8044 29.7126 28.516C29.5034 28.3997 29.2942 28.2836 29.085 28.1674C28.357 27.7632 27.6291 27.3588 26.9012 26.9542C26.3755 26.6621 25.8497 26.3701 25.3237 26.0785C25.111 25.9606 24.8983 25.8426 24.6857 25.7246C24.5829 25.6676 24.4801 25.6107 24.3742 25.552C23.8861 25.281 23.3993 25.0081 22.915 24.73C22.8277 24.6799 22.7403 24.6298 22.6503 24.5782C22.4888 24.4852 22.3275 24.3919 22.1664 24.298C20.741 23.4776 19.2289 23.5287 18.1147 24.8539Z" fill="#18CCE0"/>
<path d="M23.3448 0C27.5308 0 31.7167 0 36.0295 0C35.8998 0.406956 35.7741 0.747224 35.5932 1.12529C35.5413 1.23434 35.4893 1.3434 35.4358 1.45576C35.3784 1.57524 35.321 1.69472 35.2636 1.8142C35.203 1.94105 35.1424 2.06792 35.0819 2.1948C34.9178 2.53827 34.7534 2.88149 34.5888 3.22467C34.4167 3.58384 34.2449 3.94321 34.0731 4.30256C33.7847 4.90547 33.4961 5.50823 33.2073 6.1109C32.873 6.8084 32.5392 7.50609 32.2055 8.20389C31.8847 8.87493 31.5636 9.54587 31.2424 10.2167C31.1056 10.5025 30.9689 10.7882 30.8322 11.074C30.6715 11.41 30.5107 11.7458 30.3497 12.0816C30.2905 12.2051 30.2313 12.3286 30.1722 12.4522C30.0919 12.6203 30.0113 12.7882 29.9307 12.9561C29.8631 13.0974 29.8631 13.0974 29.794 13.2415C29.6872 13.4528 29.6872 13.4528 29.5966 13.5475C29.4326 13.5567 29.2683 13.5591 29.1041 13.5589C28.9972 13.5591 28.8904 13.5592 28.7803 13.5593C28.662 13.559 28.5437 13.5586 28.4219 13.5583C28.2969 13.5583 28.1719 13.5583 28.0469 13.5583C27.7066 13.5584 27.3663 13.5578 27.026 13.5571C26.6707 13.5566 26.3154 13.5565 25.9601 13.5564C25.2869 13.5561 24.6137 13.5553 23.9405 13.5544C23.1743 13.5533 22.408 13.5528 21.6418 13.5523C20.0651 13.5513 18.4885 13.5496 16.9119 13.5475C17.5654 12.0801 18.2547 10.6318 18.9482 9.18473C19.0882 8.89244 19.2281 8.60004 19.3679 8.30765C19.7741 7.45875 20.1806 6.61001 20.587 5.76126C21.4971 3.86004 22.4072 1.95883 23.3448 0Z" fill="#18CCE0"/>
<path d="M12.9997 0.00222318C13.1989 0.0029308 13.398 0.00346806 13.5972 0.00384474C14.1149 0.00527089 14.6325 0.00897028 15.1502 0.0131875C15.681 0.0170951 16.2119 0.0187917 16.7428 0.0206893C17.7795 0.0247138 18.8163 0.0311463 19.8531 0.0391555C19.1637 1.5009 18.4368 2.94357 17.7054 4.38506C17.5412 4.70877 17.3772 5.03259 17.2132 5.35639C16.9041 5.9665 16.5949 6.57651 16.2855 7.18648C15.8665 8.0129 15.4477 8.83948 15.0289 9.66604C14.3713 10.9639 13.7133 12.2616 13.0554 13.5593C9.23246 13.5593 5.40951 13.5593 1.4707 13.5593C1.4707 8.18616 1.4707 8.18616 2.20073 6.59242C2.23334 6.51916 2.26596 6.44589 2.29956 6.37041C2.90134 5.06124 3.69208 3.97699 4.72591 2.9701C4.84069 2.85529 4.84069 2.85529 4.95779 2.73817C5.86617 1.87724 6.95906 1.25652 8.10678 0.760073C8.17231 0.730815 8.23783 0.701558 8.30535 0.671413C9.81285 0.0536015 11.3914 -0.0148698 12.9997 0.00222318Z" fill="#18CCE0"/>
<path d="M40.1776 0C43.0398 0.220526 45.5639 1.64146 47.4729 3.69934C49.9373 6.63017 49.9999 9.6933 49.9999 13.5593C44.419 13.5593 38.8381 13.5593 33.0881 13.5593C33.2273 13.1521 33.3621 12.8116 33.5562 12.4332C33.6119 12.3241 33.6676 12.2149 33.7251 12.1025C33.7866 11.9829 33.8482 11.8634 33.9098 11.7438C33.9748 11.6168 34.0398 11.4899 34.1047 11.3629C34.2807 11.0192 34.4571 10.6757 34.6336 10.3323C34.8183 9.97285 35.0025 9.61322 35.1869 9.25361C35.4962 8.65026 35.8058 8.04705 36.1156 7.44394C36.4742 6.74593 36.8323 6.04773 37.1902 5.34941C37.5344 4.67788 37.8788 4.00646 38.2233 3.33509C38.3701 3.04915 38.5168 2.76318 38.6634 2.47718C38.8358 2.141 39.0083 1.80491 39.1811 1.4689C39.2446 1.34529 39.308 1.22165 39.3714 1.09797C39.4575 0.929803 39.544 0.761763 39.6304 0.593732C39.6788 0.499474 39.7272 0.405217 39.7771 0.308104C39.9429 0.00230351 39.9429 0.00230351 40.1776 0Z" fill="#18CCE0"/>
</svg>
