<svg width="50" height="50" viewBox="0 0 50 50" fill="none" xmlns="http://www.w3.org/2000/svg">
<path d="M3.1497 40.0399C3.22649 40.0394 3.30327 40.0388 3.38239 40.0383C3.64009 40.0368 3.89777 40.0376 4.15547 40.0384C4.34193 40.0378 4.5284 40.0371 4.71487 40.0362C5.22762 40.0344 5.74036 40.0344 6.25311 40.0348C6.80598 40.0348 7.35884 40.0331 7.91171 40.0317C8.99502 40.0291 10.0783 40.0283 11.1617 40.0281C12.0421 40.028 12.9226 40.0273 13.8031 40.0263C15.8927 40.0241 17.9823 40.0222 20.0718 40.0223C20.1721 40.0224 20.1721 40.0224 20.2744 40.0224C20.613 40.0224 20.9517 40.0224 21.2904 40.0224C21.3577 40.0225 21.425 40.0225 21.4943 40.0225C21.6303 40.0225 21.7663 40.0225 21.9024 40.0225C24.0185 40.0227 26.1347 40.0204 28.2509 40.0162C30.6285 40.0115 33.0062 40.0088 35.3839 40.0091C36.6428 40.0092 37.9016 40.0084 39.1605 40.005C40.2323 40.0022 41.3041 40.0016 42.3759 40.0037C42.9228 40.0047 43.4696 40.0047 44.0165 40.002C44.5173 39.9996 45.018 40 45.5188 40.0027C45.6998 40.0032 45.8808 40.0026 46.0618 40.0009C47.22 39.9907 48.2442 40.0437 49.1349 41.3553C49.856 42.6198 50.0237 43.9597 49.9974 45.6169C49.9512 46.9063 49.5988 47.9835 48.9917 48.8442C48.3208 49.6396 47.6931 49.9676 46.8503 49.9601C46.7735 49.9606 46.6967 49.9612 46.6176 49.9617C46.3599 49.9632 46.1022 49.9624 45.8445 49.9616C45.6581 49.9622 45.4716 49.9629 45.2851 49.9638C44.7724 49.9656 44.2596 49.9656 43.7469 49.9652C43.194 49.9652 42.6412 49.9669 42.0883 49.9683C41.005 49.9709 39.9217 49.9717 38.8383 49.9719C37.9579 49.972 37.0774 49.9727 36.1969 49.9737C34.1073 49.9759 32.0177 49.9778 29.9282 49.9777C29.8279 49.9776 29.8279 49.9776 29.7257 49.9776C29.387 49.9776 29.0483 49.9776 28.7096 49.9775C28.6423 49.9775 28.575 49.9775 28.5057 49.9775C28.3697 49.9775 28.2337 49.9775 28.0976 49.9775C25.9815 49.9773 23.8653 49.9796 21.7491 49.9838C19.3715 49.9885 16.9938 49.9912 14.6161 49.9909C13.3572 49.9908 12.0984 49.9916 10.8395 49.995C9.76771 49.9978 8.6959 49.9984 7.62409 49.9963C7.07722 49.9953 6.53038 49.9953 5.98352 49.998C5.48274 50.0004 4.982 50 4.48123 49.9973C4.30022 49.9968 4.11921 49.9974 3.93821 49.9991C2.77998 50.0093 1.75577 49.9563 0.865073 48.6447C0.14399 47.3802 -0.023707 46.0403 0.00256686 44.3831C0.0488266 43.0937 0.401179 42.0165 1.00832 41.1558C1.67921 40.3604 2.30689 40.0324 3.1497 40.0399Z" fill="#18CCE0"/>
<path d="M3.1497 20.0399C3.22649 20.0394 3.30327 20.0388 3.38239 20.0383C3.64009 20.0368 3.89777 20.0376 4.15547 20.0384C4.34193 20.0378 4.5284 20.0371 4.71487 20.0362C5.22762 20.0344 5.74036 20.0344 6.25311 20.0348C6.80598 20.0348 7.35884 20.0331 7.91171 20.0317C8.99502 20.0291 10.0783 20.0283 11.1617 20.0281C12.0421 20.028 12.9226 20.0273 13.8031 20.0263C15.8927 20.0241 17.9823 20.0222 20.0718 20.0223C20.1721 20.0224 20.1721 20.0224 20.2744 20.0224C20.613 20.0224 20.9517 20.0224 21.2904 20.0224C21.3577 20.0225 21.425 20.0225 21.4943 20.0225C21.6303 20.0225 21.7663 20.0225 21.9024 20.0225C24.0185 20.0227 26.1347 20.0204 28.2509 20.0162C30.6285 20.0115 33.0062 20.0088 35.3839 20.0091C36.6428 20.0092 37.9016 20.0084 39.1605 20.005C40.2323 20.0022 41.3041 20.0016 42.3759 20.0037C42.9228 20.0047 43.4696 20.0047 44.0165 20.002C44.5173 19.9996 45.018 20 45.5188 20.0027C45.6998 20.0032 45.8808 20.0026 46.0618 20.0009C47.22 19.9907 48.2442 20.0437 49.1349 21.3553C49.856 22.6198 50.0237 23.9597 49.9974 25.6169C49.9512 26.9063 49.5988 27.9835 48.9917 28.8442C48.3208 29.6396 47.6931 29.9676 46.8503 29.9601C46.7735 29.9606 46.6967 29.9612 46.6176 29.9617C46.3599 29.9632 46.1022 29.9624 45.8445 29.9616C45.6581 29.9622 45.4716 29.9629 45.2851 29.9638C44.7724 29.9656 44.2596 29.9656 43.7469 29.9652C43.194 29.9652 42.6412 29.9669 42.0883 29.9683C41.005 29.9709 39.9217 29.9717 38.8383 29.9719C37.9579 29.972 37.0774 29.9727 36.1969 29.9737C34.1073 29.9759 32.0177 29.9778 29.9282 29.9777C29.8279 29.9776 29.8279 29.9776 29.7257 29.9776C29.387 29.9776 29.0483 29.9776 28.7096 29.9775C28.6423 29.9775 28.575 29.9775 28.5057 29.9775C28.3697 29.9775 28.2337 29.9775 28.0976 29.9775C25.9815 29.9773 23.8653 29.9796 21.7491 29.9838C19.3715 29.9885 16.9938 29.9912 14.6161 29.9909C13.3572 29.9908 12.0984 29.9916 10.8395 29.995C9.76771 29.9978 8.6959 29.9984 7.62409 29.9963C7.07722 29.9953 6.53038 29.9953 5.98352 29.998C5.48274 30.0004 4.982 30 4.48123 29.9973C4.30022 29.9968 4.11921 29.9974 3.93821 29.9991C2.77998 30.0093 1.75577 29.9563 0.865073 28.6447C0.14399 27.3802 -0.023707 26.0403 0.00256686 24.3831C0.0488266 23.0937 0.401179 22.0165 1.00832 21.1558C1.67921 20.3604 2.30689 20.0324 3.1497 20.0399Z" fill="#18CCE0"/>
<path d="M3.1497 0.0399145C3.22649 0.0393754 3.30327 0.0388362 3.38239 0.0382808C3.64009 0.0368484 3.89777 0.0376057 4.15547 0.0383527C4.34193 0.0377782 4.5284 0.0370707 4.71487 0.0362414C5.22762 0.0343579 5.74036 0.0344013 6.25311 0.0347635C6.80598 0.0348262 7.35884 0.0331296 7.91171 0.0316705C8.99502 0.0291146 10.0783 0.0282707 11.1617 0.0280993C12.0421 0.0279532 12.9226 0.0273216 13.8031 0.0263462C15.8927 0.0240783 17.9823 0.0221869 20.0718 0.0223478C20.1721 0.022355 20.1721 0.022355 20.2744 0.0223623C20.613 0.0223879 20.9517 0.0224183 21.2904 0.0224499C21.3577 0.022456 21.425 0.0224621 21.4943 0.0224685C21.6303 0.0224809 21.7663 0.0224938 21.9024 0.022507C24.0185 0.0226955 26.1347 0.0203873 28.2509 0.0161803C30.6285 0.0114553 33.0062 0.00881384 35.3839 0.00909572C36.6428 0.00919786 37.9016 0.00835076 39.1605 0.00504303C40.2323 0.00224486 41.3041 0.0015724 42.3759 0.00366203C42.9228 0.00466718 43.4696 0.0046801 44.0165 0.00201573C44.5173 -0.000398997 45.018 3.30185e-05 45.5188 0.00271818C45.6998 0.00319113 45.8808 0.00262834 46.0618 0.000916015C47.22 -0.00931384 48.2442 0.0436747 49.1349 1.35525C49.856 2.61976 50.0237 3.95969 49.9974 5.61687C49.9512 6.90631 49.5988 7.98352 48.9917 8.84416C48.3208 9.6396 47.6931 9.96761 46.8503 9.96008C46.7735 9.96062 46.6967 9.96116 46.6176 9.96172C46.3599 9.96315 46.1022 9.96239 45.8445 9.96165C45.6581 9.96222 45.4716 9.96293 45.2851 9.96376C44.7724 9.96564 44.2596 9.9656 43.7469 9.96524C43.194 9.96517 42.6412 9.96687 42.0883 9.96833C41.005 9.97089 39.9217 9.97173 38.8383 9.9719C37.9579 9.97205 37.0774 9.97268 36.1969 9.97365C34.1073 9.97592 32.0177 9.97781 29.9282 9.97765C29.8279 9.97764 29.8279 9.97764 29.7257 9.97764C29.387 9.97761 29.0483 9.97758 28.7096 9.97755C28.6423 9.97754 28.575 9.97754 28.5057 9.97753C28.3697 9.97752 28.2337 9.97751 28.0976 9.97749C25.9815 9.9773 23.8653 9.97961 21.7491 9.98382C19.3715 9.98855 16.9938 9.99119 14.6161 9.9909C13.3572 9.9908 12.0984 9.99165 10.8395 9.99496C9.76771 9.99775 8.6959 9.99843 7.62409 9.99634C7.07722 9.99533 6.53038 9.99532 5.98352 9.99798C5.48274 10.0004 4.982 9.99997 4.48123 9.99728C4.30022 9.99681 4.11921 9.99737 3.93821 9.99908C2.77998 10.0093 1.75577 9.95633 0.865073 8.64475C0.14399 7.38024 -0.023707 6.04031 0.00256686 4.38313C0.0488266 3.09369 0.401179 2.01648 1.00832 1.15584C1.67921 0.360399 2.30689 0.0323886 3.1497 0.0399145Z" fill="#18CCE0"/>
</svg>
