<svg width="75" height="51" viewBox="0 0 75 51" fill="none" xmlns="http://www.w3.org/2000/svg">
<path d="M2.94135 0.0544824C3.04149 0.0533302 3.14163 0.0521781 3.24481 0.0509911C3.57588 0.0475382 3.90694 0.0454881 4.23803 0.0437384C4.40798 0.0426666 4.40798 0.0426666 4.58136 0.0415731C5.18106 0.0379185 5.78076 0.0354098 6.38046 0.0337649C6.99877 0.0318256 7.61698 0.0257943 8.23525 0.0188319C8.71169 0.0142405 9.18811 0.0127792 9.66456 0.0121502C9.89242 0.011298 10.1203 0.00926437 10.3481 0.00600704C10.6677 0.00172221 10.987 0.00190102 11.3066 0.00311672C11.4882 0.0020882 11.6697 0.00105968 11.8567 0C12.6336 0.13172 13.1122 0.568273 13.6401 1.20405C13.9345 1.69539 14.1065 2.14273 14.279 2.70242C14.3761 3.01084 14.3761 3.01084 14.4751 3.32549C14.5088 3.43473 14.5425 3.54397 14.5773 3.65652C14.7605 4.24875 14.9499 4.83847 15.1394 5.42823C15.1788 5.55112 15.2182 5.67401 15.2588 5.80062C19.2362 18.7996 19.2362 18.7996 27.2653 28.34C27.7203 28.5463 28.0448 28.6049 28.5258 28.4887C29.1198 27.9382 29.1983 27.0282 29.3029 26.2094C29.3479 25.2678 29.3467 24.3275 29.3442 23.385C29.3444 23.1091 29.3447 22.8332 29.3451 22.5573C29.3456 21.9797 29.3449 21.402 29.3434 20.8243C29.3417 20.0952 29.3427 19.3661 29.3445 18.637C29.5358 11.6533 29.5358 11.6533 27.2823 5.34536C27.0552 4.97381 26.8293 4.60136 26.6033 4.22893C26.314 3.75343 26.0222 3.27995 25.7299 2.80682C25.3892 2.22915 25.3569 1.8308 25.4172 1.13748C25.6377 0.671151 25.6377 0.671151 26.0389 0.260844C26.5359 0.129293 27.0247 0.142895 27.5333 0.150194C27.7605 0.148312 27.7605 0.148312 27.9922 0.146392C28.4934 0.143426 28.9943 0.146837 29.4954 0.150579C29.8438 0.150434 30.1923 0.150003 30.5408 0.149297C31.2716 0.148796 32.0023 0.151378 32.7331 0.156186C33.6687 0.162152 34.6041 0.161111 35.5397 0.157823C36.2596 0.155968 36.9795 0.15754 37.6994 0.16017C38.0443 0.161078 38.3891 0.160996 38.734 0.159899C39.2169 0.158941 39.6997 0.162525 40.1826 0.167316C40.3245 0.166171 40.4664 0.165027 40.6126 0.163848C41.5316 0.179301 42.089 0.323102 42.8253 0.962156C43.5649 2.004 43.5338 2.97741 43.522 4.27563C43.5226 4.48274 43.5232 4.68986 43.5239 4.90326C43.525 5.46838 43.5235 6.0334 43.521 6.59852C43.5191 7.19145 43.5213 7.78435 43.5232 8.37728C43.5274 9.88333 43.5263 11.3894 43.5247 12.8954C43.523 14.5222 43.5222 16.149 43.5274 17.7758C43.5292 18.3654 43.5296 18.9549 43.5269 19.5444C43.5244 20.2017 43.5255 20.8588 43.5275 21.516C43.5257 21.7103 43.524 21.9046 43.5221 22.1048C43.5296 23.1623 43.5612 23.8485 44.2242 24.6314C44.9658 24.7848 45.4198 24.7163 46.0699 24.2917C47.3894 23.2519 48.4848 21.9856 49.4605 20.5483C49.6042 20.3366 49.749 20.126 49.8946 19.916C53.452 14.7699 56.4495 8.73144 58.6037 2.68457C59.0248 1.50637 59.3643 0.838726 60.3889 0.260844C60.7331 0.241111 61.0778 0.2329 61.4224 0.22981C61.5817 0.228082 61.5817 0.228082 61.7442 0.226319C62.0963 0.222858 62.4484 0.220814 62.8005 0.219066C62.9208 0.218352 63.0411 0.217637 63.165 0.216901C63.802 0.213243 64.439 0.210736 65.076 0.209093C65.7331 0.207155 66.3902 0.201126 67.0474 0.19416C67.5533 0.18957 68.0591 0.188107 68.5651 0.187478C68.8072 0.186626 69.0494 0.18459 69.2916 0.181335C69.6313 0.177053 69.9707 0.177229 70.3104 0.178445C70.6 0.176902 70.6 0.176902 70.8954 0.175328C71.7123 0.307384 72.1872 0.739558 72.7164 1.43335C73.2151 2.53752 73.2395 3.33432 72.9289 4.50823C71.1449 10.5049 67.6587 16.1371 64.3887 21.2021C63.8421 22.0506 63.307 22.9061 62.7883 23.7767C62.7272 23.8782 62.6661 23.9798 62.6031 24.0844C61.6715 25.6473 61.6715 25.6473 61.3215 27.4367C61.5974 28.4772 62.1801 29.1609 62.8654 29.8927C63.1677 30.2214 63.4396 30.5606 63.7112 30.9213C64.2596 31.6417 64.8545 32.3014 65.4531 32.9684C65.8766 33.4523 66.2696 33.9575 66.6613 34.4738C66.9176 34.8013 67.1847 35.1081 67.4609 35.4141C67.9333 35.9387 68.3705 36.4877 68.8027 37.0544C69.1134 37.4569 69.4333 37.8485 69.7535 38.2413C71.1596 40.0058 72.4058 41.8504 73.445 43.9175C73.5064 44.0377 73.5679 44.158 73.6312 44.2818C73.8281 44.6699 74.0208 45.0602 74.2124 45.4517C74.2731 45.5717 74.3337 45.6918 74.3962 45.8155C74.8079 46.6781 75.0138 47.4894 74.9993 48.4761C74.728 49.4963 74.2838 50.1868 73.4922 50.7763C72.991 50.9923 72.5087 50.9809 71.9797 50.9788C71.8644 50.9797 71.7491 50.9806 71.6302 50.9815C71.2495 50.984 70.8689 50.9838 70.4882 50.9834C70.223 50.9841 69.9578 50.9848 69.6926 50.9857C69.1367 50.987 68.5809 50.9869 68.0251 50.986C67.314 50.985 66.6029 50.988 65.8918 50.992C65.344 50.9946 64.7962 50.9948 64.2484 50.9942C63.9863 50.9943 63.7242 50.9952 63.4621 50.997C63.0949 50.9992 62.7278 50.998 62.3607 50.9959C62.2531 50.9973 62.1455 50.9986 62.0347 51C61.3223 50.9913 60.8397 50.8231 60.2335 50.4047C59.7906 49.8622 59.4668 49.2737 59.1357 48.6404C58.5841 47.6475 57.933 46.8268 57.2214 45.9811C56.8962 45.5934 56.5852 45.2012 56.2797 44.7942C55.5889 43.8941 54.8294 43.068 54.0789 42.232C53.6042 41.703 53.1334 41.1706 52.6708 40.6281C49.9165 37.3972 49.9165 37.3972 46.3225 35.9839C46.2023 35.9794 46.082 35.9749 45.9582 35.9702C45.5381 36.0423 45.4123 36.1776 45.1568 36.5538C45.0056 37.0654 44.9803 37.3996 44.9768 37.9325C44.9752 38.1058 44.9736 38.2791 44.972 38.4577C44.9708 38.645 44.9697 38.8324 44.9685 39.0255C44.9642 39.4233 44.9597 39.8211 44.9552 40.2189C44.9488 40.8452 44.9431 41.4715 44.9389 42.0978C44.9346 42.7028 44.9275 43.3077 44.92 43.9127C44.9195 44.0976 44.919 44.2825 44.9184 44.473C44.892 46.2951 44.5847 47.8303 43.447 49.1774C42.0118 50.6556 40.6131 50.8418 38.7451 50.8239C38.4006 50.8211 38.0564 50.8239 37.7119 50.8272C35.5276 50.8313 33.4831 50.421 31.4109 49.6267C31.1764 49.5369 31.1764 49.5369 30.9372 49.4452C27.149 47.9421 23.6074 45.7044 20.5988 42.6902C20.402 42.4936 20.402 42.4936 20.2012 42.293C19.9394 42.0287 19.6786 41.763 19.4192 41.4958C19.0561 41.1241 18.6865 40.7622 18.316 40.4C17.7778 39.861 17.3001 39.2955 16.8363 38.6755C16.5362 38.2786 16.222 37.8998 15.9068 37.5181C11.1607 31.5515 7.61687 24.0332 4.43414 16.917C4.36076 16.7534 4.28737 16.5897 4.21177 16.4211C2.76598 13.1719 1.57441 9.80858 0.694106 6.30966C0.649489 6.13298 0.604871 5.9563 0.558902 5.77426C-0.153053 2.81195 -0.153053 2.81195 0.378997 1.44568C0.991703 0.330928 1.83169 0.0650549 2.94135 0.0544824Z" fill="#18CCE0"/>
</svg>
